<mxfile host="app.diagrams.net" modified="2023-02-02T10:31:44.658Z" agent="5.0 (Windows)" etag="D-hyOlwFYyrFHKH8ICNM" version="20.8.15" type="github">
  <diagram id="UT46QJ1jsyzQ9C0hisqK" name="Page-1">
    <mxGraphModel dx="794" dy="353" grid="1" gridSize="10" guides="1" tooltips="1" connect="1" arrows="1" fold="1" page="1" pageScale="1" pageWidth="827" pageHeight="1169" math="0" shadow="0">
      <root>
        <mxCell id="0" />
        <mxCell id="1" parent="0" />
        <mxCell id="0nAgzPy5qaXit49zQv_4-5" value="" style="edgeStyle=orthogonalEdgeStyle;rounded=0;orthogonalLoop=1;jettySize=auto;html=1;" parent="1" source="0nAgzPy5qaXit49zQv_4-1" target="0nAgzPy5qaXit49zQv_4-3" edge="1">
          <mxGeometry relative="1" as="geometry" />
        </mxCell>
        <mxCell id="0nAgzPy5qaXit49zQv_4-1" value="DevOps" style="shape=umlActor;verticalLabelPosition=bottom;verticalAlign=top;html=1;outlineConnect=0;" parent="1" vertex="1">
          <mxGeometry x="20" y="170" width="30" height="60" as="geometry" />
        </mxCell>
        <mxCell id="0nAgzPy5qaXit49zQv_4-3" value="" style="aspect=fixed;perimeter=ellipsePerimeter;html=1;align=center;shadow=0;dashed=0;spacingTop=3;image;image=img/lib/active_directory/laptop_client.svg;" parent="1" vertex="1">
          <mxGeometry x="90" y="175" width="45" height="50" as="geometry" />
        </mxCell>
        <mxCell id="0nAgzPy5qaXit49zQv_4-8" value="" style="ellipse;shape=cloud;whiteSpace=wrap;html=1;" parent="1" vertex="1">
          <mxGeometry x="210" y="100" width="340" height="210" as="geometry" />
        </mxCell>
        <mxCell id="0nAgzPy5qaXit49zQv_4-9" value="Resource group" style="rounded=1;whiteSpace=wrap;html=1;" parent="1" vertex="1">
          <mxGeometry x="330" y="140" width="100" height="40" as="geometry" />
        </mxCell>
        <mxCell id="0nAgzPy5qaXit49zQv_4-10" value="&lt;div&gt;AKS Cluster&lt;/div&gt;&lt;div&gt;Redis + VoteApp&lt;br&gt;&lt;/div&gt;" style="rounded=1;whiteSpace=wrap;html=1;" parent="1" vertex="1">
          <mxGeometry x="330" y="225" width="100" height="40" as="geometry" />
        </mxCell>
        <mxCell id="0nAgzPy5qaXit49zQv_4-13" value="&lt;div&gt;Docker&lt;/div&gt;&lt;div&gt;Vote App image&lt;br&gt;&lt;/div&gt;" style="shape=trapezoid;perimeter=trapezoidPerimeter;whiteSpace=wrap;html=1;fixedSize=1;" parent="1" vertex="1">
          <mxGeometry x="580" y="240" width="120" height="60" as="geometry" />
        </mxCell>
        <mxCell id="0nAgzPy5qaXit49zQv_4-15" value="Terraform" style="endArrow=classic;html=1;rounded=0;exitX=1;exitY=0.75;exitDx=0;exitDy=0;entryX=0;entryY=0.5;entryDx=0;entryDy=0;fontStyle=1" parent="1" source="0nAgzPy5qaXit49zQv_4-3" target="0nAgzPy5qaXit49zQv_4-9" edge="1">
          <mxGeometry width="50" height="50" relative="1" as="geometry">
            <mxPoint x="370" y="210" as="sourcePoint" />
            <mxPoint x="420" y="160" as="targetPoint" />
          </mxGeometry>
        </mxCell>
        <mxCell id="0nAgzPy5qaXit49zQv_4-17" value="kubectl" style="endArrow=classic;html=1;rounded=0;exitX=1;exitY=0.75;exitDx=0;exitDy=0;entryX=0;entryY=0.5;entryDx=0;entryDy=0;fontStyle=1" parent="1" source="0nAgzPy5qaXit49zQv_4-3" target="0nAgzPy5qaXit49zQv_4-10" edge="1">
          <mxGeometry width="50" height="50" relative="1" as="geometry">
            <mxPoint x="370" y="210" as="sourcePoint" />
            <mxPoint x="420" y="160" as="targetPoint" />
          </mxGeometry>
        </mxCell>
        <mxCell id="0nAgzPy5qaXit49zQv_4-18" value="Azure Cloud" style="text;html=1;strokeColor=none;fillColor=none;align=center;verticalAlign=middle;whiteSpace=wrap;rounded=0;fontStyle=2" parent="1" vertex="1">
          <mxGeometry x="335" y="185" width="90" height="30" as="geometry" />
        </mxCell>
        <mxCell id="0nAgzPy5qaXit49zQv_4-19" value="docker pull" style="endArrow=classic;html=1;rounded=0;exitX=1;exitY=0.5;exitDx=0;exitDy=0;dashed=1;entryX=0;entryY=0.5;entryDx=0;entryDy=0;" parent="1" source="0nAgzPy5qaXit49zQv_4-10" target="0nAgzPy5qaXit49zQv_4-13" edge="1">
          <mxGeometry width="50" height="50" relative="1" as="geometry">
            <mxPoint x="370" y="210" as="sourcePoint" />
            <mxPoint x="420" y="160" as="targetPoint" />
          </mxGeometry>
        </mxCell>
        <mxCell id="0nAgzPy5qaXit49zQv_4-20" value="&lt;div&gt;Jenkins&lt;/div&gt;&lt;div&gt;Pipeline&lt;br&gt;&lt;/div&gt;" style="shape=trapezoid;perimeter=trapezoidPerimeter;whiteSpace=wrap;html=1;fixedSize=1;" parent="1" vertex="1">
          <mxGeometry x="580" y="100" width="120" height="60" as="geometry" />
        </mxCell>
        <mxCell id="0nAgzPy5qaXit49zQv_4-21" value="Install on VM" style="endArrow=classic;html=1;rounded=0;dashed=1;exitX=1;exitY=0.5;exitDx=0;exitDy=0;entryX=0;entryY=0.5;entryDx=0;entryDy=0;" parent="1" source="0nAgzPy5qaXit49zQv_4-9" target="0nAgzPy5qaXit49zQv_4-20" edge="1">
          <mxGeometry width="50" height="50" relative="1" as="geometry">
            <mxPoint x="370" y="210" as="sourcePoint" />
            <mxPoint x="420" y="160" as="targetPoint" />
          </mxGeometry>
        </mxCell>
        <mxCell id="Q8v1M-SdDP9Jy1FPyqZS-1" value="&lt;div&gt;GitHub&lt;/div&gt;&lt;div&gt;Brief 7 - yaml&lt;br&gt;&lt;/div&gt;" style="ellipse;whiteSpace=wrap;html=1;" vertex="1" parent="1">
          <mxGeometry x="315" y="30" width="130" height="60" as="geometry" />
        </mxCell>
        <mxCell id="Q8v1M-SdDP9Jy1FPyqZS-3" value="local" style="curved=1;endArrow=classic;html=1;rounded=0;entryX=0;entryY=0.5;entryDx=0;entryDy=0;exitX=0.75;exitY=0;exitDx=0;exitDy=0;" edge="1" parent="1" source="0nAgzPy5qaXit49zQv_4-3" target="Q8v1M-SdDP9Jy1FPyqZS-1">
          <mxGeometry width="50" height="50" relative="1" as="geometry">
            <mxPoint x="380" y="200" as="sourcePoint" />
            <mxPoint x="430" y="150" as="targetPoint" />
            <Array as="points">
              <mxPoint x="160" y="110" />
              <mxPoint x="230" y="70" />
            </Array>
          </mxGeometry>
        </mxCell>
        <mxCell id="Q8v1M-SdDP9Jy1FPyqZS-5" value="clone" style="curved=1;endArrow=classic;html=1;rounded=0;exitX=1;exitY=0.5;exitDx=0;exitDy=0;entryX=0.5;entryY=0;entryDx=0;entryDy=0;" edge="1" parent="1" source="Q8v1M-SdDP9Jy1FPyqZS-1" target="0nAgzPy5qaXit49zQv_4-20">
          <mxGeometry width="50" height="50" relative="1" as="geometry">
            <mxPoint x="380" y="200" as="sourcePoint" />
            <mxPoint x="430" y="150" as="targetPoint" />
            <Array as="points">
              <mxPoint x="580" y="50" />
            </Array>
          </mxGeometry>
        </mxCell>
        <mxCell id="Q8v1M-SdDP9Jy1FPyqZS-7" value="dÃ©ploie" style="curved=1;endArrow=classic;html=1;rounded=0;exitX=0.5;exitY=1;exitDx=0;exitDy=0;" edge="1" parent="1" source="0nAgzPy5qaXit49zQv_4-20">
          <mxGeometry width="50" height="50" relative="1" as="geometry">
            <mxPoint x="380" y="240" as="sourcePoint" />
            <mxPoint x="550" y="160" as="targetPoint" />
            <Array as="points">
              <mxPoint x="620" y="190" />
              <mxPoint x="570" y="180" />
            </Array>
          </mxGeometry>
        </mxCell>
      </root>
    </mxGraphModel>
  </diagram>
</mxfile>
